<svg viewBox="0 0 16 16" xmlns="http://www.w3.org/2000/svg">
  <path d="M14.367,4.734v.43A9.268,9.268,0,0,1,5.039,14.5,9.218,9.218,0,0,1,0,13.164a5.182,5.182,0,0,0,.781.055,6.624,6.624,0,0,0,4.07-1.555,3.271,3.271,0,0,1-3.055-2.281,3.226,3.226,0,0,0,.609.063,3.282,3.282,0,0,0,.875-.117A3.279,3.279,0,0,1,.648,6.109v-.04a3.29,3.29,0,0,0,1.484.406A3.266,3.266,0,0,1,.664,3.758a3.128,3.128,0,0,1,.445-1.594,9.328,9.328,0,0,0,6.758,3.367,3.42,3.42,0,0,1-.07-.758A3.268,3.268,0,0,1,11.07,1.5a3.396,3.396,0,0,1,2.414,1.031,6.589,6.589,0,0,0,2.07-.797,3.254,3.254,0,0,1-1.445,1.82A6.402,6.402,0,0,0,16,3.031a6.648,6.648,0,0,1-1.633,1.703z"/>
</svg>
